<svg version="1" xmlns="http://www.w3.org/2000/svg" width="933.333" height="933.333" viewBox="0 0 700.000000 700.000000"><path d="M243.6 157.6c-32.4 9.6-59.2 17.7-59.7 17.9-.4.3-2.2 4.8-3.9 10l-3.2 9.5-5.6 1.6c-18.7 5.4-44.3 13.2-44.6 13.5-.1.2-5.1 14.9-11.1 32.6l-10.9 32.1-5 .7-5.1.6L80.2 318C66.9 357.3 66 360.3 66 367.4v7.6l-6.9 3.5c-7.7 3.8-6.4 1.7-11.6 19.9l-1.6 5.4 16.9 26.8c9.2 14.7 17.5 27.1 18.2 27.5.8.5 37.7 9.4 82 19.8l80.5 19 40.2 3.6c38.6 3.4 41.2 3.8 68 9.5 52.1 11 64.4 12.5 111.3 13.5l31.5.7 54-6.2c29.6-3.4 54.2-6.3 54.5-6.4.3-.2 11.9-6.9 25.8-15.1l25.2-14.8-.2-28.5-.3-28.5-32.4-14.7-32.4-14.6-9.3-12c-9.2-11.9-9.2-12-16.5-14.8-4.1-1.6-7.8-3.3-8.3-3.7-.6-.5-6.4-20.2-13.1-43.9l-12.1-43-8.6-6c-12-8.3-14.4-11.7-18.4-25.6-1.8-6.2-3.5-11.8-3.8-12.3-.5-.7-109-89.4-114.1-93.2-.6-.4-14 3.5-29.8 8.7l-28.7 9.5-10.7-8.9c-6-4.9-11.2-9.1-11.8-9.4-.5-.3-27.5 7.2-59.9 16.8zm103.8 57.9l50.4 41 1.8 6.1 1.9 6.2 14-4c7.7-2.2 14.2-4.2 14.4-4.4.7-.6-5.3-20.7-6.6-22-.8-.7-16.4-13.6-34.8-28.6-18.4-15-33.5-27.5-33.5-27.9 0-.3 5-2.3 11-4.4l11-3.7 11.8 9.5c6.4 5.3 27.9 22.8 47.6 38.9l35.9 29.3 20.8 72.5c11.5 39.9 20.8 73 20.9 73.6 0 .7-21.9 6.6-53.1 14.4-41.4 10.4-53.3 13-53.9 12-.4-.7-10.6-35.5-22.5-77.4-12-41.9-22.1-76.9-22.6-77.8-.5-1-23.7-20.3-51.6-43-30-24.4-50-41.4-49.2-41.7 10.8-3.6 32.8-9.9 34.2-9.8 1 .1 24.4 18.6 52.1 41.2zM288 246.8l47.5 38.7 20.2 70.5c11.1 38.7 20.1 70.5 20 70.7-.4.3-29.7-4.4-30.1-4.8-.2-.2-5.7-19.1-12.1-41.9-6.4-22.8-12.1-42.9-12.6-44.7-.9-2.8-7.7-7.6-56.2-39.3l-55.1-36.2-35 5.1c-19.3 2.7-35.3 4.7-35.6 4.5-.3-.3 2.2-8.3 5.5-17.8l5.9-17.3 44-13.1c24.3-7.2 44.6-13.1 45.1-13.1.6 0 22.4 17.4 48.5 38.7zm-39.7 74.7c24.7 16.1 45.1 29.5 45.3 29.8.3.2 5.4 17.9 11.4 39.3 10.3 36.4 11 39.5 11 47.9v9.1l38.5 6.3 38.5 6.4 76.8-19.2 76.8-19.2 3.8-10c2.2-5.4 4.2-9.9 4.6-9.9.3 0 3.6 4 7.3 8.9l6.7 8.8 26.3 11.8c14.4 6.6 26.8 12.3 27.5 12.8.9.7 1.2 3.7 1 10.6l-.3 9.5-15 8.9-15 9-19.5 2.3c-50.6 6.1-69.5 7.5-111.5 8.4l-41 .8-46.6-9.9c-40.5-8.5-49.4-10.1-68-11.9-11.8-1.2-28.6-3-37.3-4.1-8.8-1-16.3-1.9-16.8-1.9-.4 0-.8-4.9-.8-10.9v-10.9l-24.5-6.1c-13.5-3.3-24.9-6.1-25.5-6.1-.6 0-1 4.6-1 12 0 6.6-.4 12-.9 12-.9 0-29.2-6.6-32.3-7.6-1.5-.4-1.8-2.2-2-13.1l-.3-12.7L143 417c-12.4-3.1-23.7-6-25.2-6.3l-2.8-.7v12.6c0 12.6 0 12.6-2.2 12.1-1.3-.3-4.8-1.1-7.8-1.7l-5.6-1.2-8.7-13.8c-4.8-7.6-8.9-14.4-9.2-15.2-.4-1.1 1.5-2.4 7-4.8l7.5-3.3v-29.1l10.1-29.5c5.6-16.3 10.5-30.3 10.9-31.1.7-1.1 10.5-2.9 39.7-7.1 21.3-3.1 40.6-5.7 42.8-5.8 3.6 0 8.3 2.7 48.8 29.4z"/></svg>