<?xml version="1.0" encoding="UTF-8" standalone="no"?><!DOCTYPE svg PUBLIC "-//W3C//DTD SVG 1.1//EN" "http://www.w3.org/Graphics/SVG/1.1/DTD/svg11.dtd"><svg width="100%" height="100%" viewBox="0 0 908 698" version="1.1" xmlns="http://www.w3.org/2000/svg" xmlns:xlink="http://www.w3.org/1999/xlink" xml:space="preserve" xmlns:serif="http://www.serif.com/" style="fill-rule:evenodd;clip-rule:evenodd;stroke-miterlimit:1;"><path d="M10.564,15.592l0,-17.25l-14.25,0l0,17.25l14.25,0Z" style="fill:#f3f3f2;"/><rect x="895.939" y="-1.658" width="18" height="21.75" style="fill:#f3f3f2;"/><rect x="-72.468" y="-35.831" width="75.908" height="744.017" style="fill:#f3f3f2;"/><rect x="902.568" y="-35.831" width="75.908" height="744.017" style="fill:#f3f3f2;"/><path d="M-8.163,661.963l911.662,0l0,-1.031l4.85,-4.969l5.59,0l0,101.987l-930,0l0,-95.987l0,-6l0.721,-0.991l7.177,6.991Z" style="fill:#f3f3f2;"/><path d="M901.939,6.592l-6,-6l-889.5,0l-6,6l0,86.16l901.5,0l0,-86.16Z" style="fill:#f3f3f2;"/><path d="M901.939,6.592l0,86.16l-901.5,0l0,-86.16l6,-6l889.5,0l6,6Zm-894.257,-3l-4.243,4.242l0,81.918l895.5,0l0,-81.918l-4.242,-4.242l-887.015,0Z" style="fill:#c2c0bc;"/><path d="M901.939,8.408l4.5,4.5l0,648l-6,6l-888.75,0l-6,-6l0,-0.75l1.5,1.5l888.75,0l6,-6l0,-647.25Z" style="fill:#c2c0bc;"/><path d="M901.939,656.713l-6,6l-889.5,0l-6,-6l0,-566.657l901.5,0l0,566.657Zm-898.5,-563.657l0,562.414l4.243,4.243l887.015,0l4.242,-4.243l0,-562.414l-895.5,0Z" style="fill:#c2c0bc;"/><path d="M1.939,47.675l90.91,0l30,-29.212l127.5,0l30,29.212l623.09,0" style="fill:none;stroke:#c2c0bc;stroke-width:3px;"/><path d="M24.574,15.626l9,9l-9,9l-9,-9l9,-9Z" style="fill:none;stroke:#c2c0bc;stroke-width:3px;"/><path d="M52.963,15.626l9,9l-9,9l-9,-9l9,-9Z" style="fill:none;stroke:#c2c0bc;stroke-width:3px;"/><path d="M81.351,15.626l9,9l-9,9l-9,-9l9,-9Z" style="fill:none;stroke:#c2c0bc;stroke-width:3px;"/><path d="M893.567,61.213l-4.5,-4.5l-792.041,0l-4.5,4.5l0,17.25l4.5,4.5l792.041,0l4.5,-4.5l0,-17.25Z" style="fill:none;stroke:#c2c0bc;stroke-width:3px;"/><path d="M17.578,71.484l8.936,8.936l-3.466,0c0,0 -6.509,-6.51 -9.116,-9.116l0,-2.122c2.607,-2.606 9.116,-9.115 9.116,-9.115l3.466,0l-8.936,8.935l20.383,0l0,2.482l-20.383,0Z" style="fill:#c2c0bc;"/><path d="M69.595,71.484l-8.935,8.936l3.466,0c0,0 6.509,-6.51 9.116,-9.116l0,-2.122c-2.607,-2.606 -9.116,-9.115 -9.116,-9.115l-3.466,0l8.935,8.935l-20.382,0l0,2.482l20.382,0Z" style="fill:#c2c0bc;"/></svg>