<svg viewBox="0 0 160 90" xmlns="http://www.w3.org/2000/svg" fill-rule="evenodd" clip-rule="evenodd"><path d="M118.481 88.993h-7.798l-.467-6.395-.129.273-1.59 3.36-6.355 3.32-8.9-3.32-3.164-12.025 3.164-11.59 8.9-2.974 6.355 2.974 1.629 4.868v-19.348h8.355v40.857zm-57.39-.036h-7.64l-.598-6.086-1.71 4.139-5.842 2.541-7.626-2.978-2.64-7.165v-19.766h8.354v19.766l1.912 1.3h1.947l5.488-1.421v-19.645h8.355v29.315zm-39.736 0h-18.118v-40.873h18.291l7.586 4.122 1.871 4.989v5.509l-4.851 5.075 4.851 4.832v7.235l-1.871 4.989-7.759 4.122zm65.568 0h-8.356v-40.856h8.356v40.856zm-12.96 0h-8.355v-29.315h8.355v29.315zm-54.652-17.448h-7.76v9.444h8.418l2.702-1.699v-5.456l-3.36-2.289zm85.257-3.564h-2.426l-2.85 3.682v5.505l2.85 3.505h2.426l5.558-1.327v-9.675l-5.558-1.69zm-84.495-11.865h-8.522v7.742h8.383l2.702-1.7v-4.343l-2.563-1.699zm53.89-1.748h-8.355v-6.231h8.355v6.231zm85.059-45.716h-24.968l.026 6.358h22.507v8.655h-22.507v6.883h24.97l-.007 9.022h-34.602v-39.528h34.599l-.018 8.61zm-66.024 30.906h-9.608v-39.465h20.924c6.833 0 14.167 1.791 14.167 10.327 0 6.976-5.827 8.718-5.827 8.718s5.7 1.743 5.7 7.646l.018 12.737-9.405.002v-10.355c0-3.061-2.357-5.543-5.387-5.589l-10.582.01v15.969zm-56.155-9.536c-.138.003-13.134.254-17.621-.183-7.225-.708-9.786-6.061-9.786-10.43 0-5.448 3.714-9.456 9.467-10.209 2.737-.359 17.701-.189 17.861-.187l.313.003.032-8.974-.317.001-16.937.031c-1.886.116-5.013.304-8.215 1.613-3.075 1.41-5.75 3.574-7.75 6.267-2.544 3.427-3.89 7.497-3.89 11.763 0 1.343.106 2.674.323 3.952 1.218 5.985 5.141 10.937 10.765 13.599 1.899.837 4.828 1.838 10.735 2.169l3.183.067c0 .003 11.808.013 11.808.013h.311l.033-9.499-.315.004zm35.466-10.863c5.026-1.671 5.938-5.889 5.925-9.328-.009-5.251-3.715-9.792-14.685-9.792l-20.475-.003v39.452h20.422c11.035 0 15.096-5.666 15.096-11.341 0-6.872-6.283-8.988-6.283-8.988zm-6.074 4.529h-13.444v6.605h13.123c1.791-.025 3.291-1.566 3.291-3.366 0-1.652-1.266-3.042-2.939-3.235l-.031-.004zm-13.444-15.069h13.786l.05.01c1.555.275 2.688 1.599 2.688 3.15 0 1.589-1.213 3.085-2.817 3.303l-13.698.023-.009-6.486zm56.767 3.717c-.171 1.298-1.468 2.706-3.088 2.706l-13.505.004v-6.318h13.51c1.615 0 2.878 1.188 3.083 2.747v.861z" fill="#004431"/></svg>